<?xml version="1.0" encoding="UTF-8"?>
<svg width="62px" height="62px" viewBox="0 0 62 62" version="1.1" xmlns="http://www.w3.org/2000/svg" xmlns:xlink="http://www.w3.org/1999/xlink">
    <!-- Generator: Sketch 41.2 (35397) - http://www.bohemiancoding.com/sketch -->
    <title>Group 18</title>
    <desc>Created with Sketch.</desc>
    <defs></defs>
    <g id="V1" stroke="none" stroke-width="1" fill="none" fill-rule="evenodd">
        <g id="Group-18" transform="translate(1.000000, 1.000000)" stroke="#FFFFFF" stroke-width="2">
            <g id="Capa_1" transform="translate(17.000000, 20.000000)">
                <path d="M23.8999109,2.12210657 C22.5384555,0.760651185 20.7360429,0.0165358953 18.8123671,0.0165358953 C16.8886913,0.0165358953 15.0807667,0.76616315 13.7193113,2.12761853 L13.0082678,2.83866203 L12.2862004,2.1165946 C10.924745,0.75513922 9.11130851,0 7.18763268,0 C5.26946883,0 3.46154427,0.749627255 2.10560085,2.10557067 C0.744145472,3.46702605 -0.00548178315,5.27495061 3.01819618e-05,7.19862643 C3.01819618e-05,9.12230225 0.755169402,10.9247148 2.11662478,12.2861702 L12.4680953,22.6376407 C12.6114063,22.7809518 12.8043251,22.8581193 12.9917319,22.8581193 C13.1791388,22.8581193 13.3720575,22.7864638 13.5153686,22.6431527 L23.888887,12.3082181 C25.2503423,10.9467627 25.9999696,9.13883815 25.9999696,7.21516233 C26.0054816,5.2914865 25.2613663,3.48356195 23.8999109,2.12210657 Z" id="Shape"></path>
            </g>
            <circle id="Oval-2" cx="30" cy="30" r="30"></circle>
        </g>
    </g>
</svg>