<?xml version="1.0" encoding="UTF-8"?>
<svg width="225px" height="35px" viewBox="0 0 225 35" version="1.1" xmlns="http://www.w3.org/2000/svg" xmlns:xlink="http://www.w3.org/1999/xlink">
    <!-- Generator: Sketch 41.2 (35397) - http://www.bohemiancoding.com/sketch -->
    <title>Page 1 Copy 2</title>
    <desc>Created with Sketch.</desc>
    <defs>
        <polygon id="path-1" points="0.04932 33.6538462 28.54017 33.6538462 28.54017 0.142019231 0.04932 0.142019231 0.04932 33.6538462"></polygon>
        <polygon id="path-3" points="0.3339 34.5512821 24.4881 34.5512821 24.4881 0.131564103 0.3339 0.131564103"></polygon>
        <polygon id="path-5" points="0 34.5512821 224.8137 34.5512821 224.8137 0.131474359 0 0.131474359"></polygon>
    </defs>
    <g id="V1" stroke="none" stroke-width="1" fill="none" fill-rule="evenodd">
        <g id="HOME-LOGIN/REGISTER-MODAL" transform="translate(-608.000000, -355.000000)">
            <g id="Page-1-Copy-2" transform="translate(608.000000, 355.000000)">
                <polygon id="Fill-1" fill="#303030" points="18.814905 33.9605449 24.365655 1.35669872 32.778405 1.35669872 39.326355 18.7395833 45.831105 1.35669872 54.243855 1.35669872 59.794605 33.9605449 51.338205 33.9605449 48.519405 15.1938141 40.800555 33.9605449 37.418355 33.9605449 30.089655 15.1938141 27.270855 33.9605449"></polygon>
                <g id="Group-15" transform="translate(0.000000, 0.317333)">
                    <path d="M78.60924,16.0009231 L81.42804,16.0009231 C84.55014,16.0009231 86.11119,14.6462436 86.11119,11.9359872 C86.11119,9.22707692 84.55014,7.8715 81.42804,7.8715 L78.60924,7.8715 L78.60924,16.0009231 Z M78.60924,33.6431667 L70.10964,33.6431667 L70.10964,1.03932051 L83.63979,1.03932051 C87.31044,1.03932051 90.12249,1.99105128 92.07414,3.89316667 C94.02534,5.79617949 95.00094,8.47682051 95.00094,11.9359872 C95.00094,15.3956026 94.02534,18.0762436 92.07414,19.9792564 C90.12249,21.8818205 87.31044,22.8331026 83.63979,22.8331026 L78.60924,22.8331026 L78.60924,33.6431667 Z" id="Fill-2" fill="#303030"></path>
                    <g id="Group-6" transform="translate(104.400000, 0.897436)">
                        <mask id="mask-2" fill="white">
                            <use xlink:href="#path-1"></use>
                        </mask>
                        <g id="Clip-5"></g>
                        <path d="M8.54892,0.142019231 L8.54892,17.8708654 C8.54892,18.8221474 8.58492,19.7949679 8.65737,20.7897756 C8.72937,21.7841346 8.94582,22.685609 9.30807,23.4919551 C9.66897,24.2996474 10.24002,24.9556731 11.02077,25.4595833 C11.80152,25.964391 12.89952,26.2165705 14.31657,26.2165705 C15.73272,26.2165705 16.82397,25.964391 17.59032,25.4595833 C18.35622,24.9556731 18.92727,24.2996474 19.30347,23.4919551 C19.67877,22.685609 19.90287,21.7841346 19.97577,20.7897756 C20.04732,19.7949679 20.08377,18.8221474 20.08377,17.8708654 L20.08377,0.142019231 L28.54017,0.142019231 L28.54017,19.0384295 C28.54017,24.1125321 27.37602,27.81625 25.04907,30.1513782 C22.72167,32.4865064 19.14417,33.6540705 14.31657,33.6540705 C9.48807,33.6540705 5.90382,32.4865064 3.56202,30.1513782 C1.22022,27.81625 0.04932,24.1125321 0.04932,19.0384295 L0.04932,0.142019231 L8.54892,0.142019231 Z" id="Fill-4" fill="#303030"></path>
                    </g>
                    <polygon id="Fill-7" fill="#303030" points="153.22914 1.03945513 153.22914 26.4651603 163.41984 26.4651603 163.41984 33.6433013 144.72954 33.6433013 144.72954 1.03945513"></polygon>
                    <g id="Group-11" transform="translate(171.450000, 0.000000)">
                        <mask id="mask-4" fill="white">
                            <use xlink:href="#path-3"></use>
                        </mask>
                        <g id="Clip-10"></g>
                        <path d="M19.7613,9.38502564 C18.83565,8.63566667 17.9109,8.08105128 16.98615,7.72028205 C16.0605,7.35996154 15.16455,7.17957692 14.2974,7.17957692 C13.1985,7.17957692 12.30255,7.4389359 11.60865,7.95810256 C10.91475,8.47682051 10.5678,9.15483333 10.5678,9.99034615 C10.5678,10.5673974 10.7415,11.0430385 11.08845,11.4172692 C11.4354,11.7923974 11.89035,12.1168205 12.45465,12.3900897 C13.01805,12.6647051 13.6539,12.9025256 14.36265,13.104 C15.0705,13.3059231 15.7716,13.5217564 16.4655,13.7523974 C19.2411,14.6754103 21.2715,15.9075897 22.55805,17.4493846 C23.84415,18.9920769 24.4881,21.0027821 24.4881,23.4815 C24.4881,25.1538718 24.2064,26.6673974 23.64255,28.0220769 C23.0787,29.3772051 22.25475,30.537141 21.1707,31.5027821 C20.08665,32.4688718 18.75645,33.2182308 17.181,33.7513077 C15.6051,34.2843846 13.8204,34.5513718 11.82555,34.5513718 C7.69095,34.5513718 3.86055,33.3263718 0.3339,30.8759231 L3.97665,24.0437436 C5.24835,25.1682308 6.5061,26.004641 7.74945,26.5516282 C8.9919,27.0995128 10.2213,27.3732308 11.4354,27.3732308 C12.82275,27.3732308 13.8564,27.0564359 14.5359,26.4219487 C15.21495,25.788359 15.55515,25.0672692 15.55515,24.2600256 C15.55515,23.7700256 15.4683,23.3450897 15.2946,22.9843205 C15.12135,22.624 14.832,22.2923974 14.42745,21.9899615 C14.022,21.6870769 13.49505,21.4061795 12.84435,21.1468205 C12.1941,20.8870128 11.40615,20.5993846 10.4814,20.2816923 C9.38205,19.9357308 8.30565,19.5538718 7.25085,19.1361154 C6.19515,18.718359 5.25555,18.1628462 4.43205,17.4709231 C3.6081,16.779 2.94255,15.9075897 2.4372,14.8548974 C1.93095,13.8031026 1.67805,12.4699615 1.67805,10.8554744 C1.67805,9.24098718 1.94535,7.77816667 2.4804,6.46611538 C3.015,5.15496154 3.7665,4.03047436 4.73535,3.09355128 C5.70375,2.15707692 6.8886,1.42880769 8.29125,0.909641026 C9.69345,0.390923077 11.2617,0.131564103 12.99645,0.131564103 C14.6151,0.131564103 16.3062,0.355025641 18.0702,0.8015 C19.83285,1.24887179 21.5244,1.90444872 23.14395,2.76912821 L19.7613,9.38502564 Z" id="Fill-9" fill="#303030"></path>
                    </g>
                    <mask id="mask-6" fill="white">
                        <use xlink:href="#path-5"></use>
                    </mask>
                    <g id="Clip-13"></g>
                    <polygon id="Fill-12" fill="#303030" points="0 9.51461538 8.4996 9.51461538 8.4996 1.03923077 0 1.03923077"></polygon>
                    <polygon id="Fill-14" fill="#303030" points="224.8137 8.21755128 214.70985 8.21755128 214.70985 13.6658846 224.24985 13.6658846 224.24985 20.8440256 214.70985 20.8440256 214.70985 26.4651154 224.8137 26.4651154 224.8137 33.6432564 206.21025 33.6432564 206.21025 1.03941026 224.8137 1.03941026"></polygon>
                </g>
            </g>
        </g>
    </g>
</svg>