<?xml version="1.0" encoding="UTF-8"?>
<svg width="43px" height="43px" viewBox="0 0 43 43" version="1.1" xmlns="http://www.w3.org/2000/svg" xmlns:xlink="http://www.w3.org/1999/xlink">
    <!-- Generator: Sketch 41.2 (35397) - http://www.bohemiancoding.com/sketch -->
    <title>search</title>
    <desc>Created with Sketch.</desc>
    <defs>
        <filter x="-50%" y="-50%" width="200%" height="200%" filterUnits="objectBoundingBox" id="filter-1">
            <feOffset dx="0" dy="4" in="SourceAlpha" result="shadowOffsetOuter1"></feOffset>
            <feGaussianBlur stdDeviation="5" in="shadowOffsetOuter1" result="shadowBlurOuter1"></feGaussianBlur>
            <feColorMatrix values="0 0 0 0 0   0 0 0 0 0   0 0 0 0 0  0 0 0 0.1 0" type="matrix" in="shadowBlurOuter1" result="shadowMatrixOuter1"></feColorMatrix>
            <feMerge>
                <feMergeNode in="shadowMatrixOuter1"></feMergeNode>
                <feMergeNode in="SourceGraphic"></feMergeNode>
            </feMerge>
        </filter>
    </defs>
    <g id="V1" stroke="none" stroke-width="1" fill="none" fill-rule="evenodd">
        <g id="HOME-Copy" transform="translate(-1198.000000, -542.000000)" stroke-width="0.5" stroke="#303030" fill="#303030">
            <g id="Group-3-Copy-6" filter="url(#filter-1)" transform="translate(195.000000, 537.000000)">
                <g id="Group-6">
                    <g id="magnifying-glass" transform="translate(1013.310277, 11.000000)">
                        <g id="Capa_1">
                            <path d="M22.9140876,21.9324957 L17.2964833,16.316137 C18.8033954,14.5840847 19.7157436,12.3242178 19.7157436,9.85424982 C19.7157436,4.41724563 15.2923928,0 9.8593083,0 C4.4210983,0 0.00287302445,4.42237004 0.00287302445,9.85424982 C0.00287302445,15.2861296 4.42622385,19.7084996 9.8593083,19.7084996 C12.3298241,19.7084996 14.5901922,18.7963538 16.3226286,17.2897758 L21.9402329,22.9061345 C22.0734972,23.0393693 22.2528915,23.1111111 22.4271603,23.1111111 C22.601429,23.1111111 22.7808233,23.0444937 22.9140876,22.9061345 C23.1806163,22.6396649 23.1806163,22.1989653 22.9140876,21.9324957 Z M1.38164634,9.85424982 C1.38164634,5.18078344 5.18480546,1.38359202 9.85418275,1.38359202 C14.5286856,1.38359202 18.3267192,5.18590786 18.3267192,9.85424982 C18.3267192,14.5225918 14.5286856,18.330032 9.85418275,18.330032 C5.18480546,18.330032 1.38164634,14.5277162 1.38164634,9.85424982 Z" id="search"></path>
                        </g>
                    </g>
                </g>
            </g>
        </g>
    </g>
</svg>