<?xml version="1.0" encoding="UTF-8"?>
<svg width="18px" height="14px" viewBox="0 0 18 14" version="1.1" xmlns="http://www.w3.org/2000/svg" xmlns:xlink="http://www.w3.org/1999/xlink">
    <!-- Generator: Sketch 41.2 (35397) - http://www.bohemiancoding.com/sketch -->
    <title>twitter</title>
    <desc>Created with Sketch.</desc>
    <defs></defs>
    <g id="V1" stroke="none" stroke-width="1" fill="none" fill-rule="evenodd">
        <g id="HOME-SEARCH-LOGEADO-Copy" transform="translate(-25.000000, -311.000000)" fill="#FFFFFF">
            <g id="Group-10" transform="translate(25.000000, 311.000000)">
                <g id="twitter">
                    <g id="Layer_21">
                        <ellipse id="Oval" cx="12" cy="3.42857143" rx="3.42857143" ry="3.42857143"></ellipse>
                        <path d="M9.07140857,4.14283714 C8.89275429,4.14283714 8.57142857,4.51339714 8.57142857,4.71428571 C8.57142857,8.73807461 5.30950318,12 1.28571429,12 C0.916835733,11.9971934 0.548699697,11.9664483 0.184465714,11.9080286 C3.18534323,13.9244193 7.05347256,14.1220271 10.2442105,12.4219421 C13.4349484,10.721857 15.4284163,7.40108015 15.4285714,3.78568286 C15.4285714,3.15514286 11.41506,4.14283714 9.07140857,4.14283714 Z" id="Shape"></path>
                        <path d="M9.07140857,4.14283714 C6.20032021,4.14431514 3.4742633,2.88138662 1.61896286,0.690265714 C1.31984319,1.20157765 1.16056815,1.78261125 1.15714286,2.37498 C1.15714759,4.25866453 2.6841669,5.78569535 4.56785143,5.78571429 C6.38912571,5.78571429 9.62365714,5.80512 9.83663143,4.10418 C9.58332,4.12385143 9.32974286,4.14283714 9.07140857,4.14283714 Z" id="Shape"></path>
                        <path d="M2.78215714,5.17854 C2.21493498,5.17481975 1.65781522,5.0280819 1.16235429,4.75190571 C1.16208857,4.76953714 1.15712571,4.78585714 1.15712571,4.80354 C1.15713045,6.68723457 2.68416543,8.21426955 4.56786,8.21427429 C6.45154286,8.21427429 9.08928857,6.84798857 9.08928857,4.96428857 C9.08928857,3.67028571 4.64815714,5.17854 2.78215714,5.17854 Z" id="Shape"></path>
                        <path d="M4.90836,7.71127714 C4.14038664,8.20886847 3.20234192,8.37078709 2.31199714,8.15944286 C2.7342964,9.60715822 4.0598249,10.6036636 5.56787143,10.6071429 C7.67749087,10.3822479 9.34466136,8.7165587 9.57143143,6.60714 C9.57143143,4.98409714 5.85283714,7.10475429 4.90836,7.71127714 Z" id="Shape"></path>
                        <path d="M13.3803514,1.18212857 C12.2470886,1.18212857 11.9783914,2.60532857 13.4446371,2.60532857 C14.9052403,2.60208178 16.2005373,1.66624525 16.6623514,0.280568571 C15.6692348,0.870532658 14.535487,1.18197129 13.3803514,1.18212857 L13.3803514,1.18212857 Z" id="Shape"></path>
                        <path d="M14.4249943,2.1732 C13.5602104,2.17432272 12.7040376,2.00146512 11.9074286,1.66491429 C9.58602,0.683048571 8.17434857,4.53034286 11.7464229,4.53034286 C13.9518136,4.53029832 16.0046831,3.40477422 17.1906771,1.54542857 C16.3269862,1.95789055 15.3821182,2.1723624 14.4249943,2.1732 L14.4249943,2.1732 Z" id="Shape"></path>
                    </g>
                </g>
            </g>
        </g>
    </g>
</svg>